<?xml version="1.0" encoding="UTF-8" standalone="no"?>
<!-- Uploaded to: SVG Repo, www.svgrepo.com, Generator: SVG Repo Mixer Tools -->

<svg
   height="800px"
   width="800px"
   version="1.1"
   id="Layer_1"
   viewBox="0 0 505 505"
   xml:space="preserve"
   sodipodi:docname="logo.svg"
   inkscape:version="1.4.2 (f4327f4, 2025-05-13)"
   xmlns:inkscape="http://www.inkscape.org/namespaces/inkscape"
   xmlns:sodipodi="http://sodipodi.sourceforge.net/DTD/sodipodi-0.dtd"
   xmlns="http://www.w3.org/2000/svg"
   xmlns:svg="http://www.w3.org/2000/svg"><defs
   id="defs18"><rect
     x="120.5674"
     y="351.88858"
     width="937.90223"
     height="235.52702"
     id="rect2" /></defs><sodipodi:namedview
   id="namedview18"
   pagecolor="#ffffff"
   bordercolor="#000000"
   borderopacity="0.25"
   inkscape:showpageshadow="2"
   inkscape:pageopacity="0.0"
   inkscape:pagecheckerboard="0"
   inkscape:deskcolor="#d1d1d1"
   inkscape:zoom="0.71329396"
   inkscape:cx="714.99273"
   inkscape:cy="323.14868"
   inkscape:window-width="1920"
   inkscape:window-height="1009"
   inkscape:window-x="1912"
   inkscape:window-y="-8"
   inkscape:window-maximized="1"
   inkscape:current-layer="Layer_1" />

<g
   id="g10"
   transform="matrix(1.5540685,0,0,1.7099054,-142.52258,-175.60716)"
   style="fill:#81adbe;fill-opacity:1">
	<path
   style="fill:#81adbe;fill-opacity:1"
   d="m 388.7,159.8 h -18.2 c -2.5,0 -4.5,-2.2 -4.3,-4.7 l 3.7,-40.6 c 0.2,-2.2 2.1,-3.9 4.3,-3.9 h 10.9 c 2.2,0 4.1,1.7 4.3,3.9 l 3.7,40.6 c 0.1,2.5 -1.9,4.7 -4.4,4.7 z"
   id="path1" />
	<path
   style="fill:#81adbe;fill-opacity:1"
   d="m 325.1,159.8 h -18.2 c -2.5,0 -4.5,-2.2 -4.3,-4.7 l 3.7,-40.6 c 0.2,-2.2 2.1,-3.9 4.3,-3.9 h 10.9 c 2.2,0 4.1,1.7 4.3,3.9 l 3.7,40.6 c 0.1,2.5 -1.8,4.7 -4.4,4.7 z"
   id="path2" />
	<path
   style="fill:#81adbe;fill-opacity:1"
   d="m 261.6,159.8 h -18.2 c -2.5,0 -4.5,-2.2 -4.3,-4.7 l 3.7,-40.6 c 0.2,-2.2 2.1,-3.9 4.3,-3.9 H 258 c 2.2,0 4.1,1.7 4.3,3.9 l 3.7,40.6 c 0.1,2.5 -1.9,4.7 -4.4,4.7 z"
   id="path3" />
	<path
   style="fill:#81adbe;fill-opacity:1"
   d="m 198.1,159.8 h -18.2 c -2.5,0 -4.5,-2.2 -4.3,-4.7 l 3.7,-40.6 c 0.2,-2.2 2.1,-3.9 4.3,-3.9 h 10.9 c 2.2,0 4.1,1.7 4.3,3.9 l 3.7,40.6 c 0.1,2.5 -1.9,4.7 -4.4,4.7 z"
   id="path4" />
	<path
   style="fill:#81adbe;fill-opacity:1"
   d="m 134.5,159.8 h -18.2 c -2.5,0 -4.5,-2.2 -4.3,-4.7 l 3.7,-40.6 c 0.2,-2.2 2.1,-3.9 4.3,-3.9 h 10.9 c 2.2,0 4.1,1.7 4.3,3.9 l 3.7,40.6 c 0.1,2.5 -1.9,4.7 -4.4,4.7 z"
   id="path5" />
	<path
   style="fill:#81adbe;fill-opacity:1"
   d="m 388.7,345.2 h -18.2 c -2.5,0 -4.5,2.2 -4.3,4.7 l 3.7,40.6 c 0.2,2.2 2.1,3.9 4.3,3.9 h 10.9 c 2.2,0 4.1,-1.7 4.3,-3.9 l 3.7,-40.6 c 0.1,-2.5 -1.9,-4.7 -4.4,-4.7 z"
   id="path6" />
	<path
   style="fill:#81adbe;fill-opacity:1"
   d="m 325.1,345.2 h -18.2 c -2.5,0 -4.5,2.2 -4.3,4.7 l 3.7,40.6 c 0.2,2.2 2.1,3.9 4.3,3.9 h 10.9 c 2.2,0 4.1,-1.7 4.3,-3.9 l 3.7,-40.6 c 0.1,-2.5 -1.8,-4.7 -4.4,-4.7 z"
   id="path7" />
	<path
   style="fill:#81adbe;fill-opacity:1"
   d="m 261.6,345.2 h -18.2 c -2.5,0 -4.5,2.2 -4.3,4.7 l 3.7,40.6 c 0.2,2.2 2.1,3.9 4.3,3.9 H 258 c 2.2,0 4.1,-1.7 4.3,-3.9 l 3.7,-40.6 c 0.1,-2.5 -1.9,-4.7 -4.4,-4.7 z"
   id="path8" />
	<path
   style="fill:#81adbe;fill-opacity:1"
   d="m 198.1,345.2 h -18.2 c -2.5,0 -4.5,2.2 -4.3,4.7 l 3.7,40.6 c 0.2,2.2 2.1,3.9 4.3,3.9 h 10.9 c 2.2,0 4.1,-1.7 4.3,-3.9 l 3.7,-40.6 c 0.1,-2.5 -1.9,-4.7 -4.4,-4.7 z"
   id="path9" />
	<path
   style="fill:#81adbe;fill-opacity:1"
   d="m 134.5,345.2 h -18.2 c -2.5,0 -4.5,2.2 -4.3,4.7 l 3.7,40.6 c 0.2,2.2 2.1,3.9 4.3,3.9 h 10.9 c 2.2,0 4.1,-1.7 4.3,-3.9 l 3.7,-40.6 c 0.1,-2.5 -1.9,-4.7 -4.4,-4.7 z"
   id="path10" />
</g>
<path
   style="fill:#324a5e;stroke-width:1.55499"
   d="M 501.4453,436.31045 H 5.3660701 c -2.1212048,0 -3.9595829,-2.0519 -3.9595829,-4.78774 V 89.370627 c 0,-2.564863 1.6969636,-4.78773 3.9595829,-4.78773 H 501.3039 c 2.1212,0 3.95958,2.051875 3.95958,4.78773 V 431.52271 c 0,2.73584 -1.69696,4.78774 -3.81818,4.78774 z"
   id="path11" />
<g
   id="g18"
   transform="matrix(1.7319424,0,0,1.7099054,-114.88713,-168.56403)">
	
	
	
	
	
	
	
<text
   xml:space="preserve"
   style="font-weight:bold;font-size:53.8667px;font-family:'DejaVu Serif';-inkscape-font-specification:'DejaVu Serif Bold';text-align:start;writing-mode:lr-tb;direction:ltr;text-anchor:start;fill:#e2e6f3;fill-opacity:1;stroke-width:0.63125"
   x="88.833694"
   y="263.11063"
   id="text18"><tspan
     sodipodi:role="line"
     id="tspan18"
     style="font-size:53.8667px;fill:#e2e6f3;fill-opacity:1;stroke-width:0.63125"
     x="88.833694"
     y="263.11063">ELT72B</tspan></text><text
   xml:space="preserve"
   transform="matrix(0.45763855,0,0,0.45763855,69.430827,75.784994)"
   id="text2"
   style="font-weight:bold;font-size:192px;font-family:'DejaVu Serif';-inkscape-font-specification:'DejaVu Serif Bold';text-align:center;writing-mode:lr-tb;direction:ltr;white-space:pre;shape-inside:url(#rect2);display:inline;fill:#81adbe;fill-opacity:1" /></g>
<text
   xml:space="preserve"
   style="font-weight:bold;font-size:224.92px;font-family:'DejaVu Serif';-inkscape-font-specification:'DejaVu Serif Bold';text-align:center;writing-mode:lr-tb;direction:ltr;text-anchor:middle;fill:#81adbe;fill-opacity:1;stroke-width:1.17147"
   x="39.137535"
   y="395.36426"
   id="text1"
   transform="scale(1.0149901,0.98523131)"><tspan
     sodipodi:role="line"
     id="tspan1"
     style="font-size:224.92px;stroke-width:1.17147"
     x="39.137535"
     y="395.36426">.</tspan></text></svg>
